<?xml version="1.0" encoding="utf-8"?>
<!-- Generator: Adobe Illustrator 27.2.0, SVG Export Plug-In . SVG Version: 6.00 Build 0)  -->
<svg version="1.1"
	 id="svg23" xmlns:sodipodi="http://sodipodi.sourceforge.net/DTD/sodipodi-0.dtd" xmlns:svg="http://www.w3.org/2000/svg" xmlns:inkscape="http://www.inkscape.org/namespaces/inkscape"
	 xmlns="http://www.w3.org/2000/svg" xmlns:xlink="http://www.w3.org/1999/xlink" x="0px" y="0px" viewBox="0 0 308.8 304.9"
	 style="enable-background:new 0 0 308.8 304.9;" xml:space="preserve">
<style type="text/css">
	.st0{fill:#FF4A3F;}
	.st1{fill:#FFFFFF;}
</style>
<sodipodi:namedview  bordercolor="#000000" borderopacity="0.25" id="namedview25" inkscape:deskcolor="#d1d1d1" inkscape:pagecheckerboard="0" inkscape:pageopacity="0.0" inkscape:showpageshadow="2" pagecolor="#ffffff">
	</sodipodi:namedview>
<g id="SvgjsG2685" transform="matrix(0.9820592540669653,0,0,0.9820592540669653,-0.054560523427421584,0)">
	<g id="g17">
		<path id="path3" class="st0" d="M53.7,44.6h1.5L54,44L53.7,44.6z M57.5,42.8c0,0.3,0,0.3,0.3,0.3l1.2-0.9
			C58.3,41.9,58,41.9,57.5,42.8z M46.1,50.7l0.9-0.6c0.3-0.3,0.3-0.6,0.3-0.6h-0.6L46.1,50.7C45.8,50.4,45.8,50.7,46.1,50.7z
			 M52.5,42.2h-0.3l-0.6,0.6h0.9L52.5,42.2z M46.4,49.2l1.7-1.5c0.3-0.3,0.3-0.6,0.3-0.9h-0.9l-3.5,3.2l-0.6,1.2l2-1.7L46.4,49.2z"
			/>
		<path id="path5" class="st0" d="M24.3,72.8v-0.6c0.2-1.3,1-2.4,2-3.2l2.6-1.7l1.5-1.7l2-2l1.2-1.2l1.2-0.9c1-0.6,1.9-1.5,2.3-2.6
			l1.2-1.5c1.1-1.1,2.1-2.4,2.9-3.8l0.6-0.9l0.9-0.6L42,51.3l1.2-1.5c2.3-1.7,4.1-4.1,6.4-5.8l0.9-0.9c0.3-0.7,0.8-1.3,1.5-1.7
			l2.3-1.2h1.2c0.9-0.3,1.6-1,2-1.7v-0.6c0.9-1.7,2.2-3.1,3.8-4.1l2.3-1.5l0.6-0.6l1.2-1.2l2.9-1.5h0.6l-3.2,1.2l-4.1,2.9
			c-1.7,1.5-4.1,1.7-5.2,4.1h0.9c-2,0.6-4.1,1.5-5,3.5c-0.9,2-2.3,1.7-3.5,2.6c-0.5,0.1-0.9,0.6-0.9,1.2c-2.3-0.3-3.2,1.5-4.4,2.6
			v2.3c-1.9,0.9-3.5,2.3-4.7,4.1c-4.7,0.3-4.7,6.1-8.7,7.3h-0.3c-0.1,0.2-0.1,0.4,0,0.6c-0.9,0-1.5,0.6-1.2,1.5L28,64.4
			c-2,1.2-1.7,3.2-2.9,5c-2.3,1.5-3.2,4.4-5,6.4l0.9,1.5l0.6-0.6C22.4,75.3,23.3,74,24.3,72.8z M153,9.6l1.7,0.6h0.6
			c1.3,0.6,2.7,0.8,4.1,0.6c1.8-0.3,3.7-0.2,5.5,0.3h3.5c1.2-0.3,2.5,0.1,3.5,0.9c0.1,0.1,0.1,0.2,0,0.3h-1.2
			c-0.1,0.1-0.1,0.2,0,0.3h2c1.2-0.5,2.6-0.5,3.8,0c0.6,0,0.3,0.3,0.6,0.6l1.5,0.6H178c-0.6-1.2-1.5-1.2-2.3-1.2
			c-3.9-1.8-8.2-2.7-12.5-2.6h-2.3c-3.4-1-6.9-1.4-10.5-1.2h0.6L153,9.6z M174.3,18.6h0.6H174.3z M196.1,20.1c0.8,0.8,1.9,1,2.9,0.6
			h1.7c-1.5-1.2-3.3-1.9-5.2-2l-2-0.6l1.5,0.9L196.1,20.1z M186.2,16.3c0,0.3,0.3,0.6,0.6,0.9h0.6l1.5-0.9c-1.5-0.9-3.2-1.5-5-1.7
			l2,1.2L186.2,16.3z M207.8,24.2l2.3,1.5C209.5,24.8,208.9,24.2,207.8,24.2z"/>
		<path id="path7" class="st0" d="M284.4,221.7l1.7-4.7l1.7-4.4c0.6-1.5,1.7-5.2,2.3-7.6c0.1-0.7,0.4-1.4,0.9-2h0.3v-3.2
			c1.5-0.3,1.2-1.7,1.5-2.6l2.3-13.7c1.5-5.9,1.5-12.1,0-18.1c0.3-1.7-0.3-3.4-1.5-4.7v-12.5c-0.9-2.6,0.9-5.5-1.2-7.9l-2.3-9.3
			c0-0.2,0-0.4,0-0.6l-0.6-1.7c-0.2-0.4-0.2-0.8,0-1.2h0.3c0.9,0,0.9-1.5,0.9-2.6c-0.2-1.1-0.6-2.2-1.2-3.2l-0.9-1.2
			c-0.4-0.6-0.6-1.3-0.6-2c0.1-2-0.1-3.9-0.6-5.8V111c-0.6-2-1.2-4.4-1.7-6.4l-0.6-1.5c-0.6-1-1-2.1-1.2-3.2
			c-0.2-0.8-0.5-1.6-0.9-2.3l-1.7-2.9c-0.5-0.4-1.1-0.6-1.7-0.6h-0.3v-0.9h-0.6v-2.3h-0.3v-0.6c0-0.1,0-0.2,0-0.3v-0.6
			c0.3-0.6,0.3-0.9-0.3-1.5c-0.5-0.5-0.9-1.1-1.2-1.7l-0.6-1.7c-0.4-1.3-1.1-2.5-2-3.5c-0.6-0.6-1.1-1.3-1.5-2l-2-4.7
			c-0.4-1-1-2-1.7-2.9l-1.7-2.3c-0.5-0.7-0.9-1.5-1.2-2.3l-0.6-0.9c-0.3-0.4-0.4-1-0.3-1.5c0-0.5-0.2-0.9-0.6-1.2l-1.2-0.9v0.6
			c0.3,0.6,0,0.9-0.3,0.9h-0.6l0.9,2.9l0.9,1.5l2,2.6h-0.3l-0.6-0.6l-0.6-0.6c-0.3-1.8-1.7-3.1-3.5-3.2v-2c-0.9-3.5-4.7-3.8-6.4-6.1
			c-0.6-1.4-1.8-2.3-3.2-2.6l-2.3-2.6c-2.4-3.5-5.5-6.4-9-8.7l-2.3-1.7l-1.2-0.9c-2-2-2.9-5.2-6.4-5.2l-2.3-1.5l-2.6-2
			c-0.9-2.1-2.9-3.6-5.2-3.8c-1.9-1.7-4.2-2.9-6.7-3.5l0.6,0.6l1.5,1.2l3.8,2c2.3,1.2,4.3,2.8,6.1,4.7c1.3,1.3,2.8,2.3,4.4,3.2
			l1.7,1.5c0.3,0.3,0.6,0.6,0.3,0.9h-0.3l-2.6-0.9c-2.1-0.4-4.1-1.2-5.8-2.3l-3.5-1.7l-3.8-2h-0.6c-0.9-0.3-1.2-1.2-2.3-1.5
			l-2.3-0.6l-7.3-1.5c-1-0.5-1.9-1.2-2.6-2c-0.9,0-1.8-0.3-2.6-0.9l-2.9-1.2c-2.8-0.6-5.5-1.3-8.2-2.3l-1.7-0.6l-2.9-0.9h-1.5
			l-0.6-0.9v-0.3H176l-1.7-1.5l-1.2,0.6l-1.2,0.6h-0.6l-2.6-1.5c-1.7,1.7-3.2-0.6-4.7-0.3l-2.9-0.9c-1.1,0.6-2.4,0.6-3.5,0h-3.5
			c-0.9-0.1-1.5-0.9-1.5-1.7l0.9-0.6h1.7c0.2,0.3,0.3,0.6,0.3,0.9c0,0.6,0.6,0.6,1.5,0.6h0.6l-1.2-1.7c-0.8-0.7-1.9-0.9-2.9-0.6
			l-2.9,0.9h-0.3c0.9,0.6,0.6,0.9,0.6,1.5h-4.7l-1.2-0.6l-2.3-1.2h-0.3l-2-0.6h-6.7l1.2-0.6l2.3-0.6h0.9l5-0.9l3.2-0.6l1.7-0.6h-3.2
			c-3.3-0.7-6.6-0.7-9.9,0h-3.8l-9.9-0.3c-4.1,0.3-8.2,0-11.4,3.5c-7.3-1.2-13.7,2-20.1,5.2l-6.4,2.6c-4.1,0.6-7.8,2.4-10.8,5.2h0.9
			l1.5-0.9l2.3-1.5l3.8-1.7l2.9-0.6c1.8-1.2,3.7-2.1,5.8-2.6l2.6-0.9H93c0.3,0.6,1.5,0,2,0h0.6c0.3,0,0.3,0.3,0,0.3l-1.7,1.2
			l2.9-0.9l2.3-0.6l-3.8,2l-3.8,1.2c-0.8,0.2-1.4,0.8-1.7,1.5L88.9,25h0.9l1.2-0.6c0.6-0.9,1.5-1.5,2.6-1.7l4.4-1.5h1.5
			c0.2-0.1,0.4,0,0.4,0.1c0.1,0.2,0,0.4-0.1,0.4l0,0c-0.6,0.6-1.7,0.9-2.3,1.5H98l-9.3,2.6l-11.1,4.7c-1.9,1.7-4.2,2.9-6.7,3.5
			c-1.5,1.3-3.1,2.4-5,3.2l-2.3,0.6c-0.7,1.5-2.1,2.5-3.8,2.6l-0.9,1.5c-0.9,1.3-2.1,2.4-3.5,3.2h-0.3v-0.3l-0.6,0.6L54,46l-2.9,0.6
			h-1.5l-1.2,1.5c-0.3,0.3-0.3,0.6,0,0.6h0.3c-1.7,1.7-2.9,4.1-5.2,5L39.7,58c-1.7,3.5-5.2,4.7-7.6,7.6S28,76.9,20.8,78.1l-0.6-0.9
			l-0.6,1.5c-0.3,0.8-0.6,1.6-1.2,2.3c-1.3,2-2.5,4-3.5,6.1c-0.3,0.4-0.4,1-0.3,1.5c0,0.8-0.2,1.6-0.6,2.3l-1.5,3.2h0.6
			c0.9,0,0.9,0.9,1.2,1.7l2.3-3.2c0.4-0.8,1-1.5,1.7-2c1.1-0.6,2.1-1.5,2.6-2.6l0.9-0.9l1.2-1.2l1.7-3.2h0.6c0.3,0.3,0.3,0.3,0.6,0
			l0.6-1.2H28v2.3l1.5-1.5c0.3-0.5,0.3-1,0-1.5c0-0.3,0.1-0.6,0.3-0.9c0.4-0.4,0.7-0.9,0.9-1.5c0.3-1.2,1.2-2.2,2.3-2.6l0.9-0.6
			l0.9-0.9c1-0.7,1.8-1.7,2.3-2.9l-0.6-0.9c0-0.3,0.3-0.9,0.6-1.2h1.5l1.7-2.3l1.7-0.9h0.6c-6,6.5-11.3,13.5-16,21h-0.3h0.3
			c-6.5,10.2-11.7,21.1-15.4,32.6H9.7l-1.5-1.2c-0.6-0.6-0.3-2-1.2-2.6h0.3c0.9-1.5-0.3-3.5,0.9-5s0.3-4.1-2.6-3.5s-4.4,1.5-3.8,4.4
			s-2.9,5.2-3.2,8.4s-1.5,1.5-0.9,2.6v11.4c0.3,2.3-1.5,5.2,2.3,6.1l3.8,2.6c0.3,1.5-1.5,4.7,2.6,3.8c-0.5,4.8-0.8,9.7-0.9,14.6
			c0,3.2,0.3,6.4,0.3,9.6v-1.2c-0.3-1.2-0.3-2.3-0.6-3.8l-0.9,0.9v-0.6H3c0,1.5-0.3,2.3-1.2,2.6c-0.2,0.4-0.3,1-0.3,1.5
			c0,0.3,0.3,0.9,0.6,0.6s1.2,0.6,2,1.2C5,173,3.6,173.3,3,173s-0.6,0.3-0.6,0.9v0.9l1.5,4.4c0,0.9-0.3,1.7-0.3,2.6
			c0,0.8,0.2,1.6,0.6,2.3H3.3v-0.9l-2-0.6v-1.7c0.1-0.5,0.1-1,0-1.5c-0.4-1.7-0.7-3.5-0.9-5.2c-0.6-3.4-0.7-6.8-0.6-10.2
			c0-0.5,0.1-1,0.3-1.5v0.6c0.1,0.5,0.2,1,0.3,1.5c0,0.4,0.1,0.8,0.3,1.2c0.3,0.6,0.6,1.2,1.2,1.2s0.3-0.3,0.3-0.6
			c0-0.5-0.1-1-0.3-1.5c-0.5-1.2-0.8-2.5-0.9-3.8c-0.1-0.7-0.4-1.4-0.9-2c-0.4-0.8-0.6-1.7-0.6-2.6v-2.3c0-0.9,0.3-1.7,0.3-2.6
			c0.1-0.4,0-0.8-0.3-1.2h-0.3c-2.3,1.2-2,0.6-2.9,4.7v5.2c0,2-0.3,4.1,0,6.1c0,2.2,0.1,4.5,0.6,6.7c0.1,0.5,0.1,1,0,1.5
			c0,0.9,0.1,1.8,0.3,2.6c0.2,1.2,0.3,2.5,0.3,3.8c-0.2,1.7,0,3.4,0.6,5c0.1,0.4,0.1,0.8,0,1.2c-0.1,0.8,0,1.6,0.3,2.3
			c0.3,0.9,0.5,1.7,0.6,2.6c0.3,2.2,0.8,4.3,1.5,6.4c0.3,0.9,0.5,1.9,0.6,2.9c0.1,0.7,0.4,1.4,0.9,2c0.7,1,1.2,2.2,1.5,3.5
			c0.2,1,0.5,2,0.9,2.9l1.2,4.1c0.4,1.5,0.9,3,1.7,4.4c1,1.9,1.8,4,2.3,6.1l0.6,1.5c0.7,0.8,1.2,1.8,1.5,2.9
			c0.2,0.9,0.6,1.6,1.2,2.3c0.3,0.4,0.5,0.9,0.6,1.5c0.3,0.9,0.6,1.2,1.2,0.9h0.3v2.6l1.5,2.9l1.5,2.9l3.2,3.5l1.2,1.2
			c0.9,0.9,2,1.5,2.6,2.9l1.2,0.9c0.5,0.3,0.8,0.9,0.9,1.5l0.6,2c0.4,1,1,1.8,1.7,2.6l1.2,0.6H31c0.3,0.1,0.5,0.4,0.4,0.7
			c0,0,0,0.1-0.1,0.1c0,0.5,0,1,0,1.5c0.2,0.6,0.6,1.1,1.2,1.5H33c1.2-0.3,2.3,0.6,3.5,2h0.3c0-0.3,0.3-0.3,0-0.6v-0.6
			c0-0.3,0.3-0.6,0.6-0.3c0.6,0.4,0.9,1.1,0.9,1.7v0.6c0.2,1.2,0.6,2.4,1.2,3.5c1.5,0.9,1.5,0.9,1.5,0.3c0-0.6,0-0.6,0.6-0.6h1.2
			l0.6,0.9l2.3,1.5c2,2.3,5.2,2,7.6,3.5l5,5h0.6c0.9,2.1,2.5,3.8,4.7,4.7c0.6,1,1.7,1.7,2.9,1.7c0,1.5,1.7,1.7,3.2,2
			c0.6,0.7,1.4,1.1,2.3,1.2h0.6c1.1,1.2,2.8,1.7,4.4,1.5l2.6,2.3l7,2.6v0.6c1.5,3.2,5,2,7.3,2.9l3.2,1.2H98c3.5,0.9,7,2.6,10.8,1.5
			c-0.1,0.4-0.1,0.8,0,1.2c3.2,2,7,0,10.5,1.2c1.6,0.6,3.3,0.7,5,0.3h0.3l2.3,0.6h0.9l2.6,0.6h0.9c0.5-0.3,1-0.3,1.5,0
			c1.4,0.5,2.9,0.9,4.4,1.2h1.7c0.6-0.4,1.4-0.4,2,0h11.4c1.6,0.2,3.1,0.1,4.7-0.3h2.9l1.5-0.6h9.6l1.7-0.6l1.5-0.9h6.4v1.7h-3.8
			l-3.5,0.6c-1.2,0.3-2,0-2.9,0.3c-0.9,0.4-1.9,0.6-2.9,0.6l-3.8,0.9h-1.2c-1.5-0.3-3-0.2-4.4,0.3h-5.2c-0.8,0.4-1.8,0.4-2.6,0H137
			c-1.1-0.2-2.3,0.1-3.2,0.9h-0.9L132,307v-0.9h-3.5c-1.2-0.5-2.5-0.8-3.8-0.9h-7.3l-2-0.6l-1.5-0.6l-6.1-1.2h-1.5l-1.5-0.6l-6.1-2
			l-4.1-1.2h-6.4c-0.3,0-0.3,0.3-0.3,0.6h0.6c3.8,1.5,7.6,2.6,11.4,4.4h0.9l2.6,0.6l4.1,1.2h3.8l1.7,0.6l2,0.9l5,0.9l3.2,0.6
			l3.2,0.6h2.3l2.3,0.6h9l2.9,0.6h6.7l2.9-0.6h6.4c1.2,0,1.7-0.3,2-0.9h2.9c0.9,0.1,1.7-0.2,2.3-0.9c-0.3,0.3,0,0.3,0.3,0.6h1.2
			v-0.6c0-0.3,0-0.3,0.6-0.6c0.6-0.3,1.7-0.3,2,0.3h1.2l0.9-0.6c0.6,0,0.6,0,0.6,0.3h2l1.5-0.6l2.3-1.2c0.3,0.9,1.2,1.2,3.8,0.6
			l3.8-1.2h3.5c2.6-0.3,5.8,0,7.9-2h0.6l1.2-0.9l3.2-0.9c2.1-0.4,4-1.2,5.8-2.3l1.2-0.6h0.3l2.6-1.7l1.2-0.6l1.5-0.6h1.2
			c1.2-0.3,1.2-0.3,1.5-1.2c0.3-0.9,0-0.3-0.6-0.3h-0.3l1.2-1.5h0.6c0.9-0.3,1.5-0.6,2-0.3h0.6c1.3-0.4,2.3-1.4,2.6-2.6
			c0.9-1.2,3.2-0.6,3.8-2.3l12.5-9c3.2-0.3,4.1-3.2,6.4-5c2.3-1.7,6.7-3.2,8.7-6.4l2.6-1.2h0.3c1.5,0.4,3.1-0.5,3.5-2v1.2
			c2.3-1.2,5.2,0.9,7.6-1.5c2.3-2.3,0-7.9,2.9-11.1l2-1.5c2.2-3.8,3.7-7.9,4.4-12.2l0.6-0.6c0-0.9,0-2,1.2-2.6
			c1.1-0.8,1.3-2.4,0.6-3.5h-0.6c0.2-0.3,0.2-0.6,0-0.9c2,0,2.3-2,3.5-2.9v-4.1c0-0.2,0-0.4,0-0.6
			C284.2,223,284.3,222.3,284.4,221.7L284.4,221.7z"/>
		<path id="path9" class="st0" d="M72.9,27.1L72,27.7l-1.2,0.9l1.5-0.6L72.9,27.1z M90.7,21.3H91l0.9-0.6h-1.2L90.7,21.3z
			 M83.1,24.2l-0.3,0.3h0.3V24.2z M22.8,76.3l-1.2,1.2h0.6C22.6,77.2,22.9,76.8,22.8,76.3z M31.5,66.1c0.4-0.5,0.7-1.1,0.9-1.7
			c-0.6,0.4-1.1,0.9-1.5,1.5c-0.3,0.3-0.3,0.6,0,0.6L31.5,66.1z M28,70.5v-0.6c-0.6,0-1.5,0.9-2.3,0.9v0.6
			C26.6,72.2,26.9,71.9,28,70.5z M211.3,26.8h0.3l-1.5-0.9L211.3,26.8z M204,22.7c1.5-0.3,2.3,1.2,3.5,1.5h0.3l-0.9-0.6l-2.9-1.5
			l-3.2-1.5l0.9,0.6L204,22.7z M183.9,14.9h-0.3l-3.5-0.6h1.5L183.9,14.9z M189.7,16.9l3.8,1.2C192.3,17.4,191,17,189.7,16.9z
			 M163.5,16.9c0.3-0.4,0.5-0.9,0.6-1.5h-1.5l-0.9,0.9l1.2,0.9L163.5,16.9z M177.5,17.8c0,0.1,0,0.2,0,0.3V17.8z M308,170.1h-0.9
			v-1.2h0.9c0.3,0,0.6-0.9,0.3-1.2c-0.3-0.3-0.3-2-0.9-2.3c-0.4-0.1-0.6-0.5-0.6-0.9l0.6-1.2c0-0.2,0-0.4,0-0.6h-0.6l-0.6-0.9
			c-0.3,0.9-0.6,1.7-1.2,2c0,0.2,0,0.4,0,0.6c0,0.3,0,0.6-0.3,0.6h-0.3c-0.1,0.3-0.2,0.6-0.3,0.9c-0.6,0.8-1,1.7-1.2,2.6
			c-0.1,0.4,0,0.9,0.3,1.2h0.3c-0.3,0.7-0.4,1.5-0.3,2.3v1.2c0,0.5-0.1,1-0.3,1.5h-0.3l-1.2,2v1.7c0.1,1.1-0.2,2.3-0.9,3.2h-0.6
			l-0.6-0.6c-0.5-0.7-0.6-1.6-0.3-2.3c0.3-1.6,0.4-3.3,0.3-5c0-0.3-0.3-0.6-0.3-0.6c-0.2,0.3-0.3,0.6-0.3,0.9v1.7
			c0,0.6-0.3,1.7-0.9,2c-0.6,0.3-0.3,0.6-0.3,0.9l-0.6,1.7l0.9,1.5c-0.6,0.6-1.2,0.3-1.5-0.3v2.9h0.9v1.2c-0.5,1.3-0.8,2.7-0.9,4.1
			c0,0.4,0,0.8,0,1.2c0,1.3-0.2,2.6-0.6,3.8c-0.1,0.6-0.1,1.2,0,1.7l-0.9,2c-0.2,0.7-0.5,1.4-0.9,2l-0.9,1.7l-2.6,7.9
			c0.9,2.6-1.2,4.4-2.3,6.1c0.3,2.5-0.5,5-2.3,6.7v1.2c0,0.3,0.3,0.6,0.9,0.3l1.2-0.9l0.6-1.2h0.6c0.3,0.3,0.6,0.3,1.2-0.3h0.6
			c0.5,0.4,0.6,1.2,0.3,1.7c-0.2,0.8-0.3,1.5-0.3,2.3c0,0.3,0,0.6,0.3,0.6h0.6c0.3,0.3,0.6,0,0.9-0.9l0.6-1.5h0.9
			c1.2-0.3,1.2-0.3,1.7-1.7l1.5-2.6l0.9-1.7l1.2-2.9c0-1,0.3-2.1,0.9-2.9c0.4-0.5,0.5-1.2,0.3-1.7c0-0.6,0-0.9,0.6-1.7l0.9-1.2
			l1.5-2.9c0.1-0.9,0.3-1.8,0.6-2.6c0.6-1.2,0.9-2.5,0.9-3.8c0.2-0.9,0.5-1.8,0.9-2.6v-1.5c-0.3-0.6-0.3-0.6,0-1.7s0.3-0.6,0.6-0.6
			c0.2,0.2,0.3,0.6,0.3,0.9l0.6-1.5c0.4-0.8,0.6-1.7,0.6-2.6v-0.9c0-0.3,0-0.9-0.3-0.9v1.2c-0.6,0-0.9,0.6-1.5,0.9
			c0.1-0.8,0.2-1.5,0.3-2.3l1.2-0.6c0.5-0.5,0.7-1.1,0.6-1.7c0-0.3,0-0.6,0-0.9c0.4-1.3,0.6-2.7,0.6-4.1v-0.6l0.9-2.9h0.3
			c0.3-0.2,0.4-0.6,0.3-0.9H310c-0.2-0.8,0-1.7,0.6-2.3C310.2,171.7,309.2,170.6,308,170.1L308,170.1z M22.5,89.7
			c0.1-0.2,0.1-0.4,0-0.6l-0.6-0.6l-0.6,0.6l-0.9,1.7c0,0.9-0.9,1.7-0.9,2.6v0.6h0.3L22.5,89.7z M303,161.9h0.3
			c0.6-1.1,0.8-2.3,0.6-3.5c-0.1-0.6,0.1-1.1,0.6-1.5h0.3v-0.6l-0.6-0.6h-0.3c-0.3,0.3-0.6,0.9-0.9,0.9s-0.3,0.3-0.3,0.9v0.9
			C302.5,159.6,302.6,160.8,303,161.9L303,161.9z M34.5,262.4c-0.3,0,0,0.6,0,0.9l2.3,2.3h0.3c-0.6-0.9-0.9-1.7-0.6-2
			c-0.5,0-1-0.2-1.5-0.6L34.5,262.4z M305.6,159.3h0.3c0.1-0.6,0.1-1.2,0-1.7c-0.9,0.3-0.9,0.3-0.9,1.7S305.3,159.6,305.6,159.3
			L305.6,159.3z"/>
		<path id="path11" class="st0" d="M306.8,180.6c0.3-0.4,0.4-1,0.3-1.5c0-0.3-0.3-0.6-0.3-0.3h-0.6v0.6
			C306.2,180.6,306.5,180.9,306.8,180.6L306.8,180.6z M307.1,156.7h-0.3v1.7C307.1,157.9,307.2,157.3,307.1,156.7z M45.8,269.7h-0.6
			v0.6l0.6,0.6h0.6v-0.6L45.8,269.7z M298,172.7c0-0.3,0-0.3-0.3-0.3L298,172.7z M24.8,251.9l1.5,1.5l-1.2-1.7L24.8,251.9z"/>
		<rect id="circle13" x="26.5" y="253.6" class="st0" width="0" height="0"/>
		<path id="path15" class="st0" d="M24.3,87.7H24v0.6v-0.6H24.3z M266.6,68.4l-0.6-0.9h-0.3L266.6,68.4z M12.9,94.4
			c0.2-0.1,0.3-0.4,0.3-0.6v0.6H12.9z M299.8,176.5v0.3V176.5z M43.8,269.4h-0.3c0.3,0.3,0.6,0,0.3-0.3V269.4z M44.4,271.5h0.3
			l-0.3-0.3V271.5z"/>
	</g>
</g>
<g>
	<path class="st1" d="M131.1,211.1c-5,1.9-10.2,3.2-15.5,4.1c-5.3,0.8-10.7,1.3-16.1,1.4c-5.3,0-10.6-0.3-15.9-1
		c-5.3-0.7-10.5-1.9-15.5-3.7c-3.9-1.4-7.6-3.2-11.2-5.6c-3.5-2.4-6.8-5-9.7-7.8c-2.7-2.7-5-5.7-7-9c-2-3.3-3.6-6.8-5-10.4
		c-2-5.7-3.4-11.5-4.1-17.4c-0.7-6-0.8-12-0.4-18.1c0.5-6.5,1.7-12.9,3.4-19.2c1.8-6.3,4.4-12.1,7.9-17.3c3.1-4.7,6.5-9.3,10.2-13.7
		c3.7-4.4,8.1-7.8,13.1-10.2c7.3-3.5,15.1-5.9,23.4-7.2c8.3-1.3,16.5-1.2,24.7,0.3c4.6,0.7,9.1,2,13.5,4c4.4,2,8.1,4.6,11.3,8
		c2.7,3,4.8,6.4,6.3,10.3c1.5,3.9,2.4,7.8,2.6,11.8c0.1,3.1-0.4,6-1.5,8.5c-1.2,2.6-2.8,4.8-4.9,6.8c-2.1,2-4.6,3.5-7.4,4.7
		c-2.8,1.2-5.8,1.8-8.7,1.9c-3.9,0.3-7.6-0.5-11.2-2.4c-2.7-1.5-5.3-3.2-7.8-5.1c-2.5-1.9-5.3-3.4-8.4-4.5
		c-4.6-1.5-9.2-1.3-13.8,0.6c-4.1,1.9-7.3,5-9.7,9.3c-1.6,2.8-2.8,5.9-3.6,9.1c-0.7,3.2-1.3,6.5-1.5,9.7c-0.1,2.8,0,5.8,0.5,8.7
		c0.5,3,1.5,5.7,2.9,8.1c1.5,2.2,3.4,3.9,5.8,5.3c2.4,1.4,4.8,2.2,7.4,2.4c3.1,0.3,6.2,0.1,9.1-0.6c3-0.7,5.9-1.6,8.7-2.6
		c0.9-0.4,2.6-1,5-1.9c2.4-0.9,4.9-1.8,7.7-2.8c2.8-1,5.4-1.9,7.8-2.7c2.4-0.8,4.1-1.3,5.1-1.4c2-0.4,4.1-0.3,6.3,0.4
		c2.7,0.8,5,2.3,7,4.4c2,2.1,3.6,4.6,4.8,7.4c1.2,2.8,2,5.8,2.3,8.9c0.3,3.1,0.3,6.1-0.1,8.9c-0.3,2.2-0.8,4.3-1.7,6.4
		c-0.9,2.1-2.1,4-3.6,5.6c-1.8,1.9-3.7,3.4-5.9,4.6C135.6,209.1,133.4,210.2,131.1,211.1z"/>
	<path class="st1" d="M204.5,215.2c-2.7,0.1-6.1,0.3-10.2,0.4c-4.1,0.1-8.4,0.1-12.7-0.2c-4.3-0.3-8.4-0.9-12.1-1.8
		c-3.7-0.9-6.5-2.4-8.2-4.5c-1.1-1.2-1.8-2.7-2.2-4.4c-0.4-1.7-0.5-3.3-0.4-5c0.3-2.6,0.8-5.1,1.7-7.5c0.9-2.4,2-4.7,3.3-6.9
		c1.9-3.2,3-6.8,3.4-10.7c0.4-3.9,0.5-7.6,0.4-11.3c0-1.4-0.1-3.4-0.2-6.3c-0.1-2.8-0.3-6.1-0.4-9.8c-0.1-3.7-0.3-7.6-0.6-11.8
		c-0.3-4.1-0.5-8-0.8-11.8c-0.3-3.7-0.5-7-0.8-9.9c-0.3-2.9-0.5-5-0.6-6.2c0-0.7-0.4-1.3-1.3-1.8c-0.9-0.5-1.6-0.9-2.1-1.2
		c-2.3-0.9-4.2-2.4-5.8-4.3c-1.6-1.9-2.6-3.9-3.2-6c-0.6-2.1-0.6-4.2-0.1-6.3c0.5-2.1,1.8-3.9,3.9-5.4c2-1.5,4.3-2.7,6.7-3.7
		c2.4-0.9,4.9-1.8,7.3-2.4c3.9-1.1,7.9-1.7,12.1-1.8c4.1-0.1,8.1,0.3,12.1,1.2c2.3,0.5,4.6,1.4,6.9,2.4c2.3,1.1,4.3,2.6,5.9,4.5
		c1.2,1.4,2.2,2.8,3,4.5c0.8,1.6,1.4,3.4,1.6,5.3c0.3,1.9,0.4,5,0.5,9.2c0.1,4.3,0,9.1-0.1,14.5c-0.1,5.4-0.3,11.1-0.5,17.1
		c-0.2,6-0.4,11.8-0.5,17.2c-0.1,5.5-0.3,10.3-0.5,14.6c-0.2,4.3-0.3,7.3-0.3,9.2c0.8,0,2.1,0,3.9,0c1.8,0,3.6,0,5.4-0.1
		c1.8-0.1,3.6-0.2,5.3-0.5c1.7-0.3,2.9-0.6,3.6-1c1.8-1.1,3.1-2.5,4.2-4.3c1-1.8,2.3-3.4,3.8-4.9c2.6-2.7,6-4.5,10.2-5.4
		c4.3-0.9,8.2-0.8,11.9,0.3c2.7,0.7,4.9,2,6.5,4.1c1.5,1.9,2.7,4,3.6,6.3c0.9,2.3,1.6,4.6,2.1,6.9c0.7,3.5,0.9,7.2,0.8,11.1
		c-0.1,3.9-0.7,7.5-1.8,11.1c-0.5,1.6-1.2,3.2-1.9,4.9c-0.7,1.6-1.7,3-2.7,4.3c-0.8,0.8-2.1,1.7-3.9,2.5c-1.8,0.9-3.7,1.7-5.7,2.3
		c-2,0.7-4,1.2-6,1.7c-2,0.5-3.5,0.8-4.6,0.9c-2.3,0.3-4.6,0.4-7,0.3c-2.4-0.1-4.7-0.1-7-0.1c-4.3-0.1-8.6-0.2-12.8-0.2
		C213.1,214.8,208.9,214.9,204.5,215.2z"/>
</g>
</svg>
